<svg width="160" height="41" viewBox="0 0 160 41" fill="none" xmlns="http://www.w3.org/2000/svg">
<circle cx="105.803" cy="16.7737" r="6.45143" fill="#17EDC9"/>
<path d="M7.74219 0H12.9033L11.183 38.7086H9.46259L7.74219 0Z" fill="white"/>
<path d="M1.76953 19.3867L0.00431639 14.5368L17.4913 10.0029L18.0797 11.6195L1.76953 19.3867Z" fill="white"/>
<path d="M75.8398 7.74219H81.001L79.2806 38.709H77.5602L75.8398 7.74219Z" fill="white"/>
<path d="M113.547 7.74219H118.708L116.988 38.709H115.267L113.547 7.74219Z" fill="white"/>
<path d="M62.9141 12.6553L64.7249 7.67996L93.8515 20.1593L93.2479 21.8177L62.9141 12.6553Z" fill="white"/>
<path d="M120.133 13.9346L123.877 17.6784L100.257 38.8021L99.0092 37.5542L120.133 13.9346Z" fill="white"/>
<path d="M37.4248 0C48.1139 2.23625e-05 56.7793 8.66543 56.7793 19.3545C56.7792 30.0435 48.1138 38.709 37.4248 38.709C26.7358 38.709 18.0704 30.0435 18.0703 19.3545C18.0703 8.66541 26.7357 0 37.4248 0ZM30.9727 12.9033V25.8066H43.876V12.9033H30.9727Z" fill="#CC0E33"/>
<path d="M144.519 7.74121C153.07 7.74121 160.002 14.6734 160.002 23.2246C160.002 31.7759 153.07 38.708 144.519 38.708C135.967 38.708 129.035 31.7759 129.035 23.2246C129.035 14.6734 135.967 7.74123 144.519 7.74121ZM139.355 18.0635V28.3857H149.678V18.0635H139.355Z" fill="#CC0E33"/>
</svg>
